<svg version="1.1" preserveAspectRatio="none" xmlns="http://www.w3.org/2000/svg" width="500" height="500" viewBox="0 0 500 500"><rect width="100%" height="100%" fill="#5CB8FF" fill-opacity="1"/><svg viewBox="351.4153 252.6847 336.203 205.3206" width="333" height="203.36451429642213" x="83.5px" y="148.3177px" xmlns="http://www.w3.org/2000/svg" xmlns:xlink="http://www.w3.org/1999/xlink" preserveAspectRatio="none"><defs></defs><style>.companyName {fill:#FFFFFF;fill-opacity:1;}.icon1 {fill:#005477;fill-opacity:1;}.icon2 {fill:#FFFFFF;fill-opacity:1;}.icon3 {fill:#0017EB;fill-opacity:1;}.icon3-str {stroke:#0017EB;stroke-opacity:1;}.text {fill:#FFFFFF;fill-opacity:1;}</style><g opacity="1" transform="rotate(0 408.9566 437.0053)">
<svg width="221.1204" height="21" x="408.9566" y="437.0053" version="1.1" preserveAspectRatio="none" viewBox="2.88 -31.48 413.12 39.24">
  <g transform="matrix(1 0 0 1 0 0)" class="text"><path id="id-6izo4zJp16" d="M15.96-21.84Q19.96-21.84 22.42-19.44Q24.88-17.04 24.88-12.32L24.88-12.32L24.88 0L18.64 0L18.64-11.36Q18.64-13.92 17.52-15.18Q16.40-16.44 14.28-16.44L14.28-16.44Q11.92-16.44 10.52-14.98Q9.12-13.52 9.12-10.64L9.12-10.64L9.12 0L2.88 0L2.88-29.68L9.12-29.68L9.12-19.28Q10.36-20.52 12.12-21.18Q13.88-21.84 15.96-21.84L15.96-21.84Z M42.60 0.32Q39.20 0.32 36.50-1.10Q33.80-2.52 32.28-5.04Q30.76-7.56 30.76-10.76L30.76-10.76Q30.76-13.96 32.28-16.48Q33.80-19 36.50-20.42Q39.20-21.84 42.60-21.84L42.60-21.84Q46-21.84 48.68-20.42Q51.36-19 52.88-16.48Q54.40-13.96 54.40-10.76L54.40-10.76Q54.40-7.56 52.88-5.04Q51.36-2.52 48.68-1.10Q46 0.32 42.60 0.32L42.60 0.32ZM42.60-4.80Q45-4.80 46.54-6.42Q48.08-8.04 48.08-10.76L48.08-10.76Q48.08-13.48 46.54-15.10Q45-16.72 42.60-16.72L42.60-16.72Q40.20-16.72 38.64-15.10Q37.08-13.48 37.08-10.76L37.08-10.76Q37.08-8.04 38.64-6.42Q40.20-4.80 42.60-4.80L42.60-4.80Z M87.72-21.84Q91.76-21.84 94.14-19.46Q96.52-17.08 96.52-12.32L96.52-12.32L96.52 0L90.28 0L90.28-11.36Q90.28-13.92 89.22-15.18Q88.16-16.44 86.20-16.44L86.20-16.44Q84-16.44 82.72-15.02Q81.44-13.60 81.44-10.80L81.44-10.80L81.44 0L75.20 0L75.20-11.36Q75.20-16.44 71.12-16.44L71.12-16.44Q68.96-16.44 67.68-15.02Q66.40-13.60 66.40-10.80L66.40-10.80L66.40 0L60.16 0L60.16-21.52L66.12-21.52L66.12-19.04Q67.32-20.40 69.06-21.12Q70.80-21.84 72.88-21.84L72.88-21.84Q75.16-21.84 77-20.94Q78.84-20.04 79.96-18.32L79.96-18.32Q81.28-20 83.30-20.92Q85.32-21.84 87.72-21.84L87.72-21.84Z M125.04-10.68Q125.04-10.56 124.92-9L124.92-9L108.64-9Q109.08-7 110.72-5.84Q112.36-4.68 114.80-4.68L114.80-4.68Q116.48-4.68 117.78-5.18Q119.08-5.68 120.20-6.76L120.20-6.76L123.52-3.16Q120.48 0.32 114.64 0.32L114.64 0.32Q111 0.32 108.20-1.10Q105.40-2.52 103.88-5.04Q102.36-7.56 102.36-10.76L102.36-10.76Q102.36-13.92 103.86-16.46Q105.36-19 107.98-20.42Q110.60-21.84 113.84-21.84L113.84-21.84Q117-21.84 119.56-20.48Q122.12-19.12 123.58-16.58Q125.04-14.04 125.04-10.68L125.04-10.68ZM113.88-17.12Q111.76-17.12 110.32-15.92Q108.88-14.72 108.56-12.64L108.56-12.64L119.16-12.64Q118.84-14.68 117.40-15.90Q115.96-17.12 113.88-17.12L113.88-17.12Z M171.28-21.84Q175.32-21.84 177.70-19.46Q180.08-17.08 180.08-12.32L180.08-12.32L180.08 0L173.84 0L173.84-11.36Q173.84-13.92 172.78-15.18Q171.72-16.44 169.76-16.44L169.76-16.44Q167.56-16.44 166.28-15.02Q165.00-13.60 165.00-10.80L165.00-10.80L165.00 0L158.76 0L158.76-11.36Q158.76-16.44 154.68-16.44L154.68-16.44Q152.52-16.44 151.24-15.02Q149.96-13.60 149.96-10.80L149.96-10.80L149.96 0L143.72 0L143.72-21.52L149.68-21.52L149.68-19.04Q150.88-20.40 152.62-21.12Q154.36-21.84 156.44-21.84L156.44-21.84Q158.72-21.84 160.56-20.94Q162.40-20.04 163.52-18.32L163.52-18.32Q164.84-20 166.86-20.92Q168.88-21.84 171.28-21.84L171.28-21.84Z M195.96-21.84Q200.96-21.84 203.64-19.46Q206.32-17.08 206.32-12.28L206.32-12.28L206.32 0L200.48 0L200.48-2.68Q198.72 0.32 193.92 0.32L193.92 0.32Q191.44 0.32 189.62-0.52Q187.80-1.36 186.84-2.84Q185.88-4.32 185.88-6.20L185.88-6.20Q185.88-9.20 188.14-10.92Q190.40-12.64 195.12-12.64L195.12-12.64L200.08-12.64Q200.08-14.68 198.84-15.78Q197.60-16.88 195.12-16.88L195.12-16.88Q193.40-16.88 191.74-16.34Q190.08-15.80 188.92-14.88L188.92-14.88L186.68-19.24Q188.44-20.48 190.90-21.16Q193.36-21.84 195.96-21.84L195.96-21.84ZM195.48-3.88Q197.08-3.88 198.32-4.62Q199.56-5.36 200.08-6.80L200.08-6.80L200.08-9L195.80-9Q191.96-9 191.96-6.48L191.96-6.48Q191.96-5.28 192.90-4.58Q193.84-3.88 195.48-3.88L195.48-3.88Z M229.48-29.68L235.72-29.68L235.72 0L229.76 0L229.76-2.48Q227.44 0.32 223.04 0.32L223.04 0.32Q220 0.32 217.54-1.04Q215.08-2.40 213.68-4.92Q212.28-7.44 212.28-10.76L212.28-10.76Q212.28-14.08 213.68-16.60Q215.08-19.12 217.54-20.48Q220-21.84 223.04-21.84L223.04-21.84Q227.16-21.84 229.48-19.24L229.48-19.24L229.48-29.68ZM224.12-4.80Q226.48-4.80 228.04-6.42Q229.60-8.04 229.60-10.76L229.60-10.76Q229.60-13.48 228.04-15.10Q226.48-16.72 224.12-16.72L224.12-16.72Q221.72-16.72 220.16-15.10Q218.60-13.48 218.60-10.76L218.60-10.76Q218.60-8.04 220.16-6.42Q221.72-4.80 224.12-4.80L224.12-4.80Z M264.16-10.68Q264.16-10.56 264.04-9L264.04-9L247.76-9Q248.20-7 249.84-5.84Q251.48-4.68 253.92-4.68L253.92-4.68Q255.60-4.68 256.90-5.18Q258.20-5.68 259.32-6.76L259.32-6.76L262.64-3.16Q259.60 0.32 253.76 0.32L253.76 0.32Q250.12 0.32 247.32-1.10Q244.52-2.52 243-5.04Q241.48-7.56 241.48-10.76L241.48-10.76Q241.48-13.92 242.98-16.46Q244.48-19 247.10-20.42Q249.72-21.84 252.96-21.84L252.96-21.84Q256.12-21.84 258.68-20.48Q261.24-19.12 262.70-16.58Q264.16-14.04 264.16-10.68L264.16-10.68ZM253-17.12Q250.88-17.12 249.44-15.92Q248-14.72 247.68-12.64L247.68-12.64L258.28-12.64Q257.96-14.68 256.52-15.90Q255.08-17.12 253-17.12L253-17.12Z M295.56-21.84Q298.56-21.84 301.02-20.46Q303.48-19.08 304.88-16.58Q306.28-14.08 306.28-10.76L306.28-10.76Q306.28-7.44 304.88-4.94Q303.48-2.44 301.02-1.06Q298.56 0.32 295.56 0.32L295.56 0.32Q291.44 0.32 289.08-2.28L289.08-2.28L289.08 7.76L282.84 7.76L282.84-21.52L288.80-21.52L288.80-19.04Q291.12-21.84 295.56-21.84L295.56-21.84ZM294.48-4.80Q296.88-4.80 298.42-6.42Q299.96-8.04 299.96-10.76L299.96-10.76Q299.96-13.48 298.42-15.10Q296.88-16.72 294.48-16.72L294.48-16.72Q292.08-16.72 290.54-15.10Q289.00-13.48 289.00-10.76L289.00-10.76Q289.00-8.04 290.54-6.42Q292.08-4.80 294.48-4.80L294.48-4.80Z M312.04 0L312.04-21.52L318.28-21.52L318.28 0L312.04 0ZM315.16-24.52Q313.44-24.52 312.36-25.52Q311.28-26.52 311.28-28L311.28-28Q311.28-29.48 312.36-30.48Q313.44-31.48 315.16-31.48L315.16-31.48Q316.88-31.48 317.96-30.52Q319.04-29.56 319.04-28.12L319.04-28.12Q319.04-26.56 317.96-25.54Q316.88-24.52 315.16-24.52L315.16-24.52Z M332.08-4.80L343.40-4.80L343.40 0L324.20 0L324.20-3.76L335.16-16.72L324.48-16.72L324.48-21.52L343.04-21.52L343.04-17.76L332.08-4.80Z M355.40-4.80L366.72-4.80L366.72 0L347.52 0L347.52-3.76L358.48-16.72L347.80-16.72L347.80-21.52L366.36-21.52L366.36-17.76L355.40-4.80Z M381.00-21.84Q386.00-21.84 388.68-19.46Q391.36-17.08 391.36-12.28L391.36-12.28L391.36 0L385.52 0L385.52-2.68Q383.76 0.32 378.96 0.32L378.96 0.32Q376.48 0.32 374.66-0.52Q372.84-1.36 371.88-2.84Q370.92-4.32 370.92-6.20L370.92-6.20Q370.92-9.20 373.18-10.92Q375.44-12.64 380.16-12.64L380.16-12.64L385.12-12.64Q385.12-14.68 383.88-15.78Q382.64-16.88 380.16-16.88L380.16-16.88Q378.44-16.88 376.78-16.34Q375.12-15.80 373.96-14.88L373.96-14.88L371.72-19.24Q373.48-20.48 375.94-21.16Q378.40-21.84 381.00-21.84L381.00-21.84ZM380.52-3.88Q382.12-3.88 383.36-4.62Q384.60-5.36 385.12-6.80L385.12-6.80L385.12-9L380.84-9Q377.00-9 377.00-6.48L377.00-6.48Q377.00-5.28 377.94-4.58Q378.88-3.88 380.52-3.88L380.52-3.88Z M405.84 0.32Q403.16 0.32 400.60-0.34Q398.04-1 396.52-2L396.52-2L398.60-6.48Q400.04-5.56 402.08-4.98Q404.12-4.40 406.08-4.40L406.08-4.40Q410.04-4.40 410.04-6.36L410.04-6.36Q410.04-7.28 408.96-7.68Q407.88-8.08 405.64-8.36L405.64-8.36Q403.00-8.76 401.28-9.28Q399.56-9.80 398.30-11.12Q397.04-12.44 397.04-14.88L397.04-14.88Q397.04-16.92 398.22-18.50Q399.40-20.08 401.66-20.96Q403.92-21.84 407.00-21.84L407.00-21.84Q409.28-21.84 411.54-21.34Q413.80-20.84 415.28-19.96L415.28-19.96L413.20-15.52Q410.36-17.12 407.00-17.12L407.00-17.12Q405.00-17.12 404.00-16.56Q403.00-16 403.00-15.12L403.00-15.12Q403.00-14.12 404.08-13.72Q405.16-13.32 407.52-12.96L407.52-12.96Q410.16-12.52 411.84-12.02Q413.52-11.52 414.76-10.20Q416.00-8.88 416.00-6.52L416.00-6.52Q416.00-4.52 414.80-2.96Q413.60-1.40 411.30-0.54Q409.00 0.32 405.84 0.32L405.84 0.32Z"/></g>
</svg>
</g><g opacity="1" transform="rotate(0 351.4153 371.0053)">
<svg width="336.203" height="50" x="351.4153" y="371.0053" version="1.1" preserveAspectRatio="none" viewBox="1.6 -31 271.91999999999996 40.44">
  <g transform="matrix(1 0 0 1 0 0)" class="companyName"><path id="id-D6z1nYkh14" d="M1.60 5.72L1.60 5.72L1.60-17.64Q1.60-18.56 1.66-19Q1.72-19.44 2-20L2-20Q2.56-21.08 4.68-21.08Q6.80-21.08 7.54-20.54Q8.28-20 8.40-18.96L8.40-18.96Q9.92-21.04 13.18-21.04Q16.44-21.04 19.36-17.96Q22.28-14.88 22.28-10.80Q22.28-6.72 19.38-3.64Q16.48-0.56 13.20-0.56Q9.92-0.56 8.44-2.40L8.44-2.40L8.44 5.68Q8.44 6.60 8.38 7.04Q8.32 7.48 8.02 8.06Q7.72 8.64 7 8.88Q6.28 9.12 5.04 9.12Q3.80 9.12 3.06 8.88Q2.32 8.64 2.02 8.08Q1.72 7.52 1.66 7.08Q1.60 6.64 1.60 5.72ZM9.52-13.12Q8.60-12.04 8.60-10.76Q8.60-9.48 9.54-8.42Q10.48-7.36 11.94-7.36Q13.40-7.36 14.42-8.40Q15.44-9.44 15.44-10.76Q15.44-12.08 14.48-13.14Q13.52-14.20 11.98-14.20Q10.44-14.20 9.52-13.12Z M24.88-3.52L24.88-17.56Q24.88-18.48 24.94-18.94Q25-19.40 25.28-20L25.28-20Q25.84-21.04 28.40-21.04L28.40-21.04Q30.32-21.04 31.12-20.36L31.12-20.36Q31.80-19.80 31.84-18.64L31.84-18.64Q31.88-18.24 31.88-17.48L31.88-17.48L31.88-3.48Q31.88-2.56 31.82-2.10Q31.76-1.64 31.44-1.04L31.44-1.04Q30.92 0 28.36 0L28.36 0Q25.84 0 25.28-1.08L25.28-1.08Q25-1.68 24.94-2.12Q24.88-2.56 24.88-3.52L24.88-3.52ZM31.46-24.98Q31.16-24.40 30.40-24.16Q29.64-23.92 28.38-23.92Q27.12-23.92 26.36-24.16Q25.60-24.40 25.30-25Q25-25.60 24.94-26.06Q24.88-26.52 24.88-27.44Q24.88-28.36 24.94-28.82Q25-29.28 25.28-29.84L25.28-29.84Q25.84-30.92 28.40-30.92L28.40-30.92Q30.92-30.92 31.44-29.84L31.44-29.84Q31.76-29.24 31.82-28.78Q31.88-28.32 31.88-27.40Q31.88-26.48 31.82-26.02Q31.76-25.56 31.46-24.98Z M45.60-7.04L45.60-7.04L52.44-7.04Q54.04-7.04 54.74-6.64Q55.44-6.24 55.68-5.48Q55.92-4.72 55.92-3.48Q55.92-2.24 55.68-1.48Q55.44-0.72 54.84-0.42Q54.24-0.12 53.78-0.06Q53.32 0 52.40 0L52.40 0L37.96 0Q36.56 0 35.52-1.04Q34.48-2.08 34.48-3.52Q34.48-4.96 35.52-5.98Q36.56-7 38.72-8.92Q40.88-10.84 42.64-12.38Q44.40-13.92 44.56-14.08L44.56-14.08L38.92-14.08Q36.64-14.08 36.04-14.84L36.04-14.84Q35.36-15.72 35.36-17.16Q35.36-18.60 35.56-19.30Q35.76-20 36.04-20.34Q36.32-20.68 36.84-20.88L36.84-20.88Q37.52-21.08 38.92-21.08L38.92-21.08L51.92-21.08Q53.32-21.08 54.36-20.08Q55.40-19.08 55.40-17.58Q55.40-16.08 54.20-14.92Q53-13.76 45.60-7.04Z M69.04-7.04L69.04-7.04L75.88-7.04Q77.48-7.04 78.18-6.64Q78.88-6.24 79.12-5.48Q79.36-4.72 79.36-3.48Q79.36-2.24 79.12-1.48Q78.88-0.72 78.28-0.42Q77.68-0.12 77.22-0.06Q76.76 0 75.84 0L75.84 0L61.40 0Q60 0 58.96-1.04Q57.92-2.08 57.92-3.52Q57.92-4.96 58.96-5.98Q60-7 62.16-8.92Q64.32-10.84 66.08-12.38Q67.84-13.92 68-14.08L68-14.08L62.36-14.08Q60.08-14.08 59.48-14.84L59.48-14.84Q58.80-15.72 58.80-17.16Q58.80-18.60 59-19.30Q59.20-20 59.48-20.34Q59.76-20.68 60.28-20.88L60.28-20.88Q60.96-21.08 62.36-21.08L62.36-21.08L75.36-21.08Q76.76-21.08 77.80-20.08Q78.84-19.08 78.84-17.58Q78.84-16.08 77.64-14.92Q76.44-13.76 69.04-7.04Z M95.64-18.84L95.64-18.84Q95.88-21.08 98.80-21.08L98.80-21.08Q100.36-21.08 101.12-20.84Q101.88-20.60 102.18-20Q102.48-19.40 102.54-18.94Q102.60-18.48 102.60-17.56L102.60-17.56L102.60-3.56Q102.60-2.64 102.54-2.18Q102.48-1.72 102.20-1.12L102.20-1.12Q101.64-0.08 99.46-0.08Q97.28-0.08 96.54-0.62Q95.80-1.16 95.68-2.20L95.68-2.20Q94.20-0.08 90.74-0.08Q87.28-0.08 84.32-3.24Q81.36-6.40 81.36-10.58Q81.36-14.76 84.34-17.90Q87.32-21.04 90.88-21.04L90.88-21.04Q92.24-21.04 93.36-20.56Q94.48-20.08 94.92-19.66Q95.36-19.24 95.64-18.84ZM88.36-10.52Q88.36-9.20 89.40-8.14Q90.44-7.08 91.92-7.08Q93.40-7.08 94.38-8.16Q95.36-9.24 95.36-10.54Q95.36-11.84 94.42-12.96Q93.48-14.08 91.90-14.08Q90.32-14.08 89.34-12.96Q88.36-11.84 88.36-10.52Z M130.06-29.86Q130.36-30.44 131.12-30.68Q131.88-30.92 133.14-30.92Q134.40-30.92 135.16-30.68Q135.92-30.44 136.22-29.84Q136.52-29.24 136.58-28.78Q136.64-28.32 136.64-27.40L136.64-27.40L136.64-3.52Q136.64-2.60 136.58-2.14Q136.52-1.68 136.20-1.12L136.20-1.12Q135.60-0.04 132.82-0.04Q130.04-0.04 129.72-2L129.72-2Q128.04-0.08 125.04-0.08L125.04-0.08Q121.44-0.08 118.48-3.22Q115.52-6.36 115.52-10.54Q115.52-14.72 118.50-17.88Q121.48-21.04 125.04-21.04L125.04-21.04Q128-21.04 129.64-19.04L129.64-19.04L129.64-27.44Q129.64-28.36 129.70-28.82Q129.76-29.28 130.06-29.86ZM123.56-8.12Q124.60-7.04 126.08-7.04Q127.56-7.04 128.54-8.12Q129.52-9.20 129.52-10.50Q129.52-11.80 128.58-12.92Q127.64-14.04 126.04-14.04Q124.44-14.04 123.48-12.94Q122.52-11.84 122.52-10.52Q122.52-9.20 123.56-8.12Z M160.16-13.06Q160.16-10.60 158.94-9.42Q157.72-8.24 156.24-8.24L156.24-8.24L146.76-8.24Q146.76-7.12 148.08-6.36Q149.40-5.60 150.72-5.60L150.72-5.60Q153.04-5.60 154.36-6.08L154.36-6.08L154.80-6.24Q155.76-6.68 156.40-6.68L156.40-6.68Q157.68-6.68 158.60-4.88L158.60-4.88Q159.12-3.80 159.12-3.04L159.12-3.04Q159.12 0.52 150.60 0.52L150.60 0.52Q147.64 0.52 145.34-0.50Q143.04-1.52 141.76-3.20L141.76-3.20Q139.24-6.44 139.24-10.44L139.24-10.44Q139.24-15.48 142.50-18.50Q145.76-21.52 150.64-21.52L150.64-21.52Q156.20-21.52 158.80-17.60L158.80-17.60Q160.16-15.52 160.16-13.06ZM146.68-11.88L151.72-11.88Q153.24-11.88 153.24-13.16L153.24-13.16Q153.24-14.08 152.54-14.64Q151.84-15.20 150.54-15.20Q149.24-15.20 147.96-14.14Q146.68-13.08 146.68-11.88L146.68-11.88Z M162.76-8.44L162.76-27.48Q162.76-28.40 162.82-28.86Q162.88-29.32 163.16-29.92L163.16-29.92Q163.72-31 166.28-31L166.28-31Q168.72-31 169.32-29.92L169.32-29.92Q169.64-29.32 169.70-28.84Q169.76-28.36 169.76-27.44L169.76-27.44L169.76-8.92Q169.76-7.48 170.00-7.10Q170.24-6.72 171.06-6.72Q171.88-6.72 172.16-6.66Q172.44-6.60 172.84-6.32L172.84-6.32Q173.64-5.80 173.64-3.48L173.64-3.48Q173.64-0.96 172.84-0.40L172.84-0.40Q171.80 0.32 167.88-0.16L167.88-0.16Q164.80-0.56 163.88-2.20L163.88-2.20Q162.76-4.16 162.76-8.44L162.76-8.44Z M175.84-3.52L175.84-17.56Q175.84-18.48 175.90-18.94Q175.96-19.40 176.24-20L176.24-20Q176.80-21.04 179.36-21.04L179.36-21.04Q181.28-21.04 182.08-20.36L182.08-20.36Q182.76-19.80 182.80-18.64L182.80-18.64Q182.84-18.24 182.84-17.48L182.84-17.48L182.84-3.48Q182.84-2.56 182.78-2.10Q182.72-1.64 182.40-1.04L182.40-1.04Q181.88 0 179.32 0L179.32 0Q176.80 0 176.24-1.08L176.24-1.08Q175.96-1.68 175.90-2.12Q175.84-2.56 175.84-3.52L175.84-3.52ZM182.42-24.98Q182.12-24.40 181.36-24.16Q180.60-23.92 179.34-23.92Q178.08-23.92 177.32-24.16Q176.56-24.40 176.26-25Q175.96-25.60 175.90-26.06Q175.84-26.52 175.84-27.44Q175.84-28.36 175.90-28.82Q175.96-29.28 176.24-29.84L176.24-29.84Q176.80-30.92 179.36-30.92L179.36-30.92Q181.88-30.92 182.40-29.84L182.40-29.84Q182.72-29.24 182.78-28.78Q182.84-28.32 182.84-27.40Q182.84-26.48 182.78-26.02Q182.72-25.56 182.42-24.98Z M207.28-20.60L207.28-20.60Q209.36-19.36 209.36-17.96L209.36-17.96Q209.36-17.16 208.56-15.76L208.56-15.76L200.28-1.56Q199.88-0.88 199.00-0.34Q198.12 0.20 197.26 0.20Q196.40 0.20 195.62-0.22Q194.84-0.64 194.52-1.08L194.52-1.08L194.16-1.52L185.84-15.76Q185.04-17.08 185.04-17.92L185.04-17.92Q185.04-19.36 187.12-20.60L187.12-20.60Q188.64-21.48 189.52-21.48Q190.40-21.48 190.90-20.94Q191.40-20.40 191.96-19.32L191.96-19.32L197.20-9.24L202.44-19.32Q202.88-20.08 203.10-20.42Q203.32-20.76 203.80-21.10Q204.28-21.44 205.08-21.44Q205.88-21.44 207.28-20.60Z M230.68-13.06Q230.68-10.60 229.46-9.42Q228.24-8.24 226.76-8.24L226.76-8.24L217.28-8.24Q217.28-7.12 218.60-6.36Q219.92-5.60 221.24-5.60L221.24-5.60Q223.56-5.60 224.88-6.08L224.88-6.08L225.32-6.24Q226.28-6.68 226.92-6.68L226.92-6.68Q228.20-6.68 229.12-4.88L229.12-4.88Q229.64-3.80 229.64-3.04L229.64-3.04Q229.64 0.52 221.12 0.52L221.12 0.52Q218.16 0.52 215.86-0.50Q213.56-1.52 212.28-3.20L212.28-3.20Q209.76-6.44 209.76-10.44L209.76-10.44Q209.76-15.48 213.02-18.50Q216.28-21.52 221.16-21.52L221.16-21.52Q226.72-21.52 229.32-17.60L229.32-17.60Q230.68-15.52 230.68-13.06ZM217.20-11.88L222.24-11.88Q223.76-11.88 223.76-13.16L223.76-13.16Q223.76-14.08 223.06-14.64Q222.36-15.20 221.06-15.20Q219.76-15.20 218.48-14.14Q217.20-13.08 217.20-11.88L217.20-11.88Z M247.60-20.84Q248.36-20.60 248.86-20.02Q249.36-19.44 249.36-18.16Q249.36-16.88 248.60-15.36Q247.84-13.84 246.40-13.84L246.40-13.84Q245.68-13.84 245.02-14.16Q244.36-14.48 243.28-14.48Q242.20-14.48 241.26-13.72Q240.32-12.96 240.32-11.88L240.32-11.88L240.32-3.48Q240.32-2.56 240.26-2.10Q240.20-1.64 239.88-1.04L239.88-1.04Q239.28 0 236.76 0L236.76 0Q234.84 0 234.00-0.68L234.00-0.68Q233.36-1.24 233.28-2.40L233.28-2.40Q233.28-2.80 233.28-3.56L233.28-3.56L233.28-17.60Q233.28-18.52 233.34-18.98Q233.40-19.44 233.68-20L233.68-20Q234.24-21.08 236.80-21.08L236.80-21.08Q239.20-21.08 239.80-20.16L239.80-20.16Q240.24-19.52 240.24-18.84L240.24-18.84Q240.44-19.12 240.82-19.52Q241.20-19.92 242.44-20.60Q243.68-21.28 244.62-21.28Q245.56-21.28 246.20-21.18Q246.84-21.08 247.60-20.84Z M271.16-20.84L271.16-20.84Q273.52-19.80 273.52-18.32L273.52-18.32Q273.52-17.60 273.20-16.96Q272.88-16.32 272.88-16.28L272.88-16.28L262.40 7.16Q262.08 7.92 261.86 8.32Q261.64 8.72 261.16 9.08Q260.68 9.44 259.96 9.44Q259.24 9.44 257.84 8.84L257.84 8.84Q255.48 7.80 255.48 6.36L255.48 6.36Q255.48 5.40 259.32-2.80L259.32-2.80L251.36-16.20Q250.56-17.52 250.56-18.16L250.56-18.16Q250.56-19.44 252.72-20.72L252.72-20.72Q254.08-21.52 254.84-21.52Q255.60-21.52 256.08-21.20Q256.56-20.88 256.78-20.54Q257.00-20.20 258.98-16.82Q260.96-13.44 262.76-10.52L262.76-10.52Q262.96-11.16 264.92-15.46Q266.88-19.76 267.02-20.04Q267.16-20.32 267.48-20.72L267.48-20.72Q268.00-21.40 268.94-21.40Q269.88-21.40 271.16-20.84Z"/></g>
</svg>
</g><g opacity="1" transform="rotate(0 452.2762 252.6847)">
<svg width="134.4812" height="78.3206" x="452.2762" y="252.6847" version="1.1" preserveAspectRatio="none" viewBox="12 47.5070686340332 169.00999450683594 98.429931640625">
  <g transform="matrix(1 0 0 1 0 0)"><g><path d="M161.887 123.178c-15.379 7.896-38.76 12.851-65.382 12.851-26.623 0-50.003-4.955-65.382-12.851 8.538 11.126 35.02 19.491 65.382 19.491 30.362 0 56.844-8.365 65.382-19.491z" data-color="1" class="icon1"></path><path d="M159.516 80.079c-.312 1.052-.847 2.241-1.705 3.583-3.667 5.727-16.029 23.499-28.275 23.969-3.189 3.145-6.926 6.272-11.358 9.007 3.212 3.073 6.793 5.17 10.267 6.603 1.019-.362 2.04-.728 3.056-1.094 6.777-2.44 13.177-4.745 17.457-4.745 5.945 0 8.736 2.108 9.908 3.433 11.732-5.642 18.877-12.829 18.877-20.541 0-7.565-6.889-14.622-18.227-20.215zm-2.332 34.032c-.053.002-.107.002-.16.002a5.822 5.822 0 0 1-3.27-1.008c-3.191 1.725-7.337 3.083-12.421 4.06a1.634 1.634 0 0 1-.617-3.207c4.856-.933 8.368-2.144 10.918-3.437a5.815 5.815 0 0 1-.465-2.106 5.864 5.864 0 0 1 7.108-5.881c.066-1.56-.43-2.656-.463-2.724a1.64 1.64 0 0 1 .748-2.18 1.625 1.625 0 0 1 2.176.725c.065.129 1.305 2.659.604 5.959a5.844 5.844 0 0 1 1.537 3.784 5.863 5.863 0 0 1-5.695 6.013z" data-color="1" class="icon1"></path><path d="M111.741 130.661c-7.488 0-11.142-3.346-12.69-5.414a6.942 6.942 0 0 1-2.661.604c-.002.005-.002.011-.003.016-.665 2.015-3.408 3.186-6.583 4.542-1.114.475-3.032 1.295-4.242 2.036 3.589.203 7.24.317 10.944.317 13.9 0 27.115-1.484 38.698-4.065a43.145 43.145 0 0 1-6.855-1.958c-5.804 2.033-11.49 3.795-15.918 3.913-.234.006-.464.009-.69.009z" data-color="1" class="icon1"></path><path d="M112.343 127.386c3.185-.086 7.278-1.179 11.634-2.609a35.6 35.6 0 0 1-8.127-5.842c-.211-.203-.422-.393-.634-.587-3.942 2.122-8.391 3.902-13.402 5.148 1.22 1.528 4.2 4.061 10.529 3.89z" data-color="1" class="icon1"></path><path d="M133.457 124.917c5.386 1.406 9.812 1.395 11.098 1.354 3.978-1.19 7.677-2.524 11.066-3.974-1.059-.745-3.066-1.628-6.663-1.628-3.546 0-9.321 2.024-15.501 4.248z" data-color="1" class="icon1"></path><path d="M81.445 132.168c.882-2.121 4.02-3.46 7.075-4.765 1.463-.624 3.775-1.616 4.536-2.316-1.687-.828-3.3-2.315-4.818-4.464-.72-1.02-1.619-1.777-2.66-2.347a8.031 8.031 0 0 1-2.2 5.076 8.043 8.043 0 0 1-5.883 2.53c-4.366.001-7.975-3.489-8.094-7.879a8.095 8.095 0 0 1 .118-1.612c-4.27-.211-8.45-.856-11.944-3.231a21.66 21.66 0 0 1-1.297-.96c-6.504-1.52-9.867-3.229-10.099-3.351a1.634 1.634 0 0 1-.876-1.389c-.125-3.482.011-6.652.386-9.549a15.985 15.985 0 0 1-3.144.336c-2.973 0-5.941-.826-8.62-2.433-4.451-2.67-7.172-6.836-7.903-11.387-6.81 4.725-10.755 10.149-10.755 15.866 0 15.55 29.044 28.959 66.178 31.875zm-26.23-14.45c.454-1.218 1.637-2.046 3.248-2.274 1.279-.184 2.778.015 4.221.553 1.443.537 2.705 1.37 3.554 2.344 1.069 1.226 1.421 2.627.968 3.843-.454 1.218-1.637 2.046-3.248 2.274a6.743 6.743 0 0 1-.966.066c-1.037 0-2.162-.212-3.255-.619-3.417-1.272-5.361-3.933-4.522-6.187zM37.138 98.727c.741.516.924 1.534.408 2.274-1.448 2.081-1.798 4.3-1.04 6.592 1.229 3.721 5.356 7.247 10.516 8.985a1.634 1.634 0 0 1-1.044 3.097c-6.193-2.087-11.011-6.323-12.574-11.057-1.082-3.275-.577-6.555 1.46-9.483a1.633 1.633 0 0 1 2.274-.408z" data-color="1" class="icon1"></path><path d="M181.01 100.295c0-8.757-7.09-16.684-19.028-22.835a8.064 8.064 0 0 0 3.07-2.022 8.043 8.043 0 0 0 2.216-5.789c-.121-4.464-3.834-8.014-8.316-7.876-4.464.12-7.998 3.851-7.877 8.316.027.995.241 1.94.595 2.813l-.187.061a115.208 115.208 0 0 0-7.723-2.46l-.041-.032c-3.328-2.399-8.069-4.726-13.737-6.575-.329-1.051-1.14-2.073-2.316-2.904a8.038 8.038 0 0 0 2.058-5.605 8.05 8.05 0 0 0-2.527-5.661 8.02 8.02 0 0 0-5.789-2.215c-4.174.112-7.532 3.38-7.853 7.454-.095.049-.191.083-.286.135-2.516 1.383-6.673.826-11.074.24-3.824-.51-8.158-1.087-12.306-.527-4.828.652-9.136 3.715-11.904 7.917a9.968 9.968 0 0 0-1.826.834c-1.114.656-2.01 1.453-2.655 2.298-2.38.275-4.719.587-7.004.944l-3.285-6.878a1.636 1.636 0 0 0-2.178-.77c-4.681 2.236-7.781 6.124-8.941 10.581-.351.09-.69.187-1.037.279l-6.054-6.584a1.631 1.631 0 0 0-2.308-.096c-3.281 3.017-5.181 7.003-5.394 11.248-.724.298-1.431.602-2.129.911l-4.649-2.788a1.632 1.632 0 0 0-2.241.56 17.006 17.006 0 0 0-2.375 7.139C17.097 86.058 12 92.877 12 100.295c0 7.365 5.029 14.139 13.726 19.768 5.002 14.826 34.291 25.874 70.779 25.874s65.777-11.049 70.779-25.874c8.696-5.629 13.726-12.403 13.726-19.768zm-22.144 20.541c-1.172-1.325-3.963-3.433-9.908-3.433-4.28 0-10.68 2.306-17.457 4.745-1.017.366-2.037.732-3.056 1.094-3.474-1.433-7.055-3.53-10.267-6.603 4.433-2.736 8.169-5.862 11.358-9.007 12.246-.471 24.609-18.242 28.275-23.969.859-1.341 1.394-2.531 1.705-3.583 11.338 5.592 18.227 12.649 18.227 20.215 0 7.712-7.145 14.899-18.877 20.541zm-127.743 2.342c15.379 7.896 38.76 12.851 65.382 12.851 26.622 0 50.003-4.955 65.382-12.851-8.539 11.126-35.02 19.491-65.382 19.491-30.362 0-56.844-8.365-65.382-19.491zm-15.856-22.883c0-5.717 3.945-11.141 10.755-15.866.731 4.55 3.452 8.717 7.903 11.387 2.679 1.607 5.646 2.433 8.62 2.433 1.052 0 2.103-.128 3.144-.336-.375 2.897-.512 6.068-.386 9.549.021.587.355 1.117.876 1.389.232.122 3.596 1.83 10.099 3.351.416.329.844.651 1.297.96 3.494 2.375 7.674 3.019 11.944 3.231a8.106 8.106 0 0 0-.118 1.612c.119 4.39 3.728 7.88 8.094 7.879l.222-.003a8.04 8.04 0 0 0 5.661-2.527 8.031 8.031 0 0 0 2.2-5.076c1.041.57 1.94 1.327 2.66 2.347 1.518 2.148 3.13 3.636 4.818 4.464-.761.699-3.074 1.692-4.536 2.316-3.055 1.304-6.193 2.644-7.075 4.765-37.134-2.918-66.178-16.327-66.178-31.875zm25.276-25.317c.093-2.949 1.226-5.76 3.224-8.064l7.935 8.63a17.15 17.15 0 0 0 1.261 4.756 30.263 30.263 0 0 0-4.476 7.237 13.706 13.706 0 0 1-4.36-3.188c-2.419-2.631-3.692-5.959-3.584-9.371zM61.008 62.89l3.855 8.069c-3.525 1.913-6.69 4.085-9.404 6.676-1.725-5.689.455-11.564 5.549-14.745zm40.755-4.314c4.949.66 9.624 1.285 13.079-.616 2.191-1.202 4.088-1.028 4.83-.236.389.416.523 1.05.444 1.82-.855.314-1.517.838-1.918 1.52-10.656-1.715-22.929-1.529-34.887 2.256a3.375 3.375 0 0 0-1.101-.718c2.09-2.368 4.867-4.116 8.116-4.555 3.716-.499 7.641.023 11.437.529zm19.868-8.146c1.241 0 2.415.633 3.32 1.49.937.887 1.472 2.252 1.507 3.543a4.771 4.771 0 0 1-2.027 4.05 9.595 9.595 0 0 0-1.017-.206c.04-1.984-.803-3.224-1.356-3.815-1.191-1.273-2.993-1.816-4.979-1.62a4.804 4.804 0 0 1 1.04-1.763c.888-.937 2.087-1.68 3.378-1.68l.134.001zm37.542 14.157c2.604 0 4.758 2.293 4.829 4.912.035 1.29-.434 2.728-1.322 3.664-.887.937-2.087 1.445-3.377 1.48-1.309.028-2.518-.491-3.455-1.379-.937-.887-1.472-2.199-1.507-3.49-.072-2.664 2.036-5.187 4.699-5.187h.133zm-43.324 54.348a35.6 35.6 0 0 0 8.127 5.842c-4.356 1.43-8.449 2.524-11.634 2.609-6.328.17-9.308-2.362-10.529-3.891 5.01-1.245 9.46-3.026 13.402-5.148.212.195.423.385.634.588zM80.977 65.62c-.029.382-.64 1.482-2.194 2.398-1.556.918-2.814.916-3.162.756.029-.382.64-1.482 2.194-2.398 1.556-.916 2.815-.913 3.162-.756zm1.351 51.794c.035 1.29-.434 2.728-1.322 3.664-.887.937-2.087 1.445-3.377 1.48-1.309.021-2.518-.491-3.455-1.379-.937-.887-1.472-2.199-1.507-3.49-.072-2.664 2.036-5.187 4.699-5.187h.133c2.605 0 4.758 2.293 4.829 4.912zm2.557-2.957a8.085 8.085 0 0 0-7.606-4.77c-2.671.072-5.001 1.441-6.423 3.482-4.214-.141-8.331-.595-11.444-2.71-4.192-2.849-6.471-6.83-5.948-10.39.365-2.485 2.062-4.379 4.656-5.197.958-.302 1.598-.46 2.107-.46.874 0 1.361.467 2.408 1.471 2.124 2.037 5.679 5.446 16.214 8.576 15.289 4.543 19.201 14.186 20.051 17.098a1.61 1.61 0 0 0-.518.384c-.592.368-1.389.701-2.289.653-1.666-.078-3.458-1.41-5.184-3.853-1.561-2.208-3.65-3.505-6.024-4.284zM53.999 93.361c-1.231.91-2.214 2.061-2.877 3.403-1.019-1.235-1.819-2.543-1.775-3.432.012-.248.088-.521.557-.837a1.91 1.91 0 0 1 1.093-.313c.946.002 2.039.537 3.002 1.179zm-5.155 5.802c.446.517.89.979 1.292 1.374-.136 2.418.559 4.856 1.974 7.116a41.383 41.383 0 0 1-3.571-1.312c-.055-2.581.056-4.96.305-7.178zm53.022 20.952c-.697-2.117-2.365-5.894-6.111-9.692 3.425-.083 9.91.593 16.738 5.667a54.307 54.307 0 0 1-10.627 4.025zm42.689 6.156c-1.286.041-5.712.052-11.098-1.354 6.181-2.224 11.955-4.248 15.502-4.248 3.597 0 5.604.883 6.663 1.628-3.39 1.451-7.089 2.784-11.067 3.974zm-9.352 2.426c-11.583 2.581-24.798 4.065-38.698 4.065-3.705 0-7.355-.114-10.944-.317 1.21-.742 3.127-1.561 4.242-2.036 3.175-1.356 5.918-2.527 6.583-4.542.002-.005.002-.01.003-.016a6.938 6.938 0 0 0 2.661-.604c1.548 2.068 5.202 5.414 12.69 5.414.226 0 .456-.003.689-.01 4.428-.118 10.114-1.88 15.918-3.913a43.089 43.089 0 0 0 6.856 1.959zm18.427-52.934a8.12 8.12 0 0 0 2.951 1.771c.088 1.114-.427 2.657-1.522 4.367-7.482 11.686-18.592 23.709-27.356 22.387-8.433-1.268-13.24-5.893-13.189-12.687.048-6.418 4.988-13.951 12.265-14.933a24.137 24.137 0 0 1 3.236-.203c2.717 0 5.493.37 8.202.732 4.949.658 9.623 1.283 13.078-.616.839-.461 1.632-.718 2.335-.818zm-11.821-2.644a18.6 18.6 0 0 1 1.691 1.388c-1.53-.108-3.171-.325-4.849-.549-3.824-.51-8.159-1.092-12.307-.527-8.256 1.115-15.028 9.254-15.094 18.146-.06 7.923 5.162 13.647 14.073 15.592-2.805 2.568-6.01 5.037-9.699 7.215-11.411-9.231-22.542-7.028-23.045-6.922-.055.012-.105.033-.157.05-3.143-2.375-7.254-4.583-12.644-6.184-9.775-2.905-12.973-5.971-14.883-7.803-2.088-2.003-3.487-3.08-7.627-1.807-1.574-1.317-3.692-2.579-5.81-2.763 3.944-8.997 11.623-14.053 21.528-18.265.668.904 1.79 1.429 3.188 1.429.068 0 .137-.001.207-.004 1.29-.045 2.731-.5 4.059-1.281 1.992-1.173 3.3-2.791 3.683-4.346 11.725-3.752 23.749-3.887 34.093-2.153.185.36.42.714.717 1.055.849.974 2.11 1.807 3.554 2.344 1.093.407 2.218.619 3.255.619.332 0 .656-.021.966-.066 1.087-.154 1.972-.586 2.577-1.222 5.157 1.719 9.471 3.853 12.524 6.054zm-14.936-8.255c-.316.219-1.556.436-3.245-.191-1.69-.631-2.484-1.607-2.58-1.978.313-.221 1.554-.438 3.245.191 1.691.631 2.485 1.608 2.58 1.978zM38.382 81.227a17.002 17.002 0 0 0 3.341 5.332 16.97 16.97 0 0 0 5.482 3.979 4.095 4.095 0 0 0-1.121 2.636c-.02.418.027.839.115 1.259-.229.069-.457.142-.691.198-3.322.798-6.839.22-9.902-1.618-5.962-3.576-8.071-10.502-5.283-16.62l8.059 4.834z" data-color="2" class="icon2"></path><path d="M35.932 138.696c-9.365-4.303-13.055-11.846-13.091-11.921a1.634 1.634 0 0 0-2.953 1.399c.166.351 4.186 8.67 14.68 13.492a1.636 1.636 0 0 0 2.166-.803c.377-.82.017-1.79-.802-2.167z" data-color="2" class="icon2"></path><path d="M117.078 53.873c1.987-.196 3.789.347 4.979 1.62.553.591 1.396 1.831 1.356 3.815.337.05.676.117 1.017.206a4.775 4.775 0 0 0 2.027-4.05c-.035-1.291-.57-2.656-1.507-3.543-.904-.857-2.079-1.49-3.32-1.49h-.135c-1.291 0-2.49.743-3.378 1.68a4.812 4.812 0 0 0-1.039 1.762z" data-color="3" class="icon3"></path><path d="M30.322 76.394c-2.788 6.118-.68 13.043 5.283 16.62 3.064 1.838 6.58 2.415 9.902 1.618.234-.056.462-.129.691-.198a5.028 5.028 0 0 1-.115-1.259 4.09 4.09 0 0 1 1.121-2.636 16.944 16.944 0 0 1-5.482-3.979 17.031 17.031 0 0 1-3.341-5.332l-8.059-4.834z" data-color="3" class="icon3"></path><path d="M44.127 84.348a13.722 13.722 0 0 0 4.36 3.188 30.232 30.232 0 0 1 4.476-7.237 17.176 17.176 0 0 1-1.261-4.756l-7.935-8.63c-1.998 2.305-3.131 5.115-3.224 8.064-.108 3.413 1.165 6.741 3.584 9.371z" data-color="3" class="icon3"></path><path d="M55.459 77.635c2.714-2.59 5.879-4.762 9.404-6.676l-3.855-8.069c-5.094 3.181-7.274 9.056-5.549 14.745z" data-color="3" class="icon3"></path><path d="M82.209 62.602c.424.174.794.416 1.101.718 11.959-3.785 24.231-3.971 34.887-2.256.401-.683 1.063-1.207 1.918-1.52.079-.77-.056-1.405-.444-1.82-.741-.792-2.639-.966-4.83.236-3.455 1.9-8.13 1.276-13.079.616-3.796-.506-7.721-1.028-11.438-.529-3.247.439-6.025 2.188-8.115 4.555z" data-color="4" class="icon1"></path><path d="M129.285 67.065c-.605.636-1.49 1.068-2.577 1.222-.31.045-.633.066-.966.066-1.037 0-2.162-.212-3.255-.619-1.443-.537-2.705-1.37-3.554-2.344a5.265 5.265 0 0 1-.717-1.055c-10.344-1.734-22.369-1.599-34.093 2.153-.383 1.555-1.691 3.173-3.683 4.346-1.328.782-2.769 1.237-4.059 1.281-.07.003-.139.004-.207.004-1.398 0-2.52-.525-3.188-1.429-9.905 4.211-17.583 9.268-21.528 18.265 2.118.185 4.236 1.447 5.81 2.763 4.141-1.273 5.539-.196 7.627 1.807 1.91 1.831 5.108 4.897 14.883 7.803 5.39 1.601 9.501 3.809 12.644 6.184.052-.017.102-.038.157-.05.502-.105 11.633-2.309 23.045 6.922 3.689-2.178 6.894-4.647 9.699-7.215-8.912-1.945-14.133-7.67-14.073-15.592.066-8.892 6.838-17.031 15.094-18.146 4.148-.565 8.483.017 12.307.527 1.678.223 3.319.44 4.849.549a18.6 18.6 0 0 0-1.691-1.388c-3.053-2.201-7.367-4.335-12.524-6.054zm-28.105 6.758c-.186 2.197-2.632 3.705-5.837 3.705-.291 0-.589-.012-.892-.037-1.534-.13-2.974-.59-4.053-1.3-1.36-.893-2.077-2.148-1.967-3.442.108-1.293 1.026-2.41 2.515-3.064 1.183-.518 2.679-.733 4.214-.604 1.534.13 2.974.59 4.053 1.3 1.359.893 2.076 2.148 1.967 3.442zm-39.645 4.673c1.266-.261 2.774-.158 4.247.287 1.474.446 2.786 1.196 3.694 2.115 1.144 1.157 1.584 2.533 1.208 3.776-.504 1.665-2.296 2.618-4.57 2.618a9.613 9.613 0 0 1-2.775-.432c-3.491-1.057-5.599-3.59-4.901-5.892.375-1.241 1.504-2.143 3.097-2.472z" data-color="4" class="icon1"></path><path d="M52.11 107.653c-1.415-2.261-2.11-4.698-1.974-7.116a22.057 22.057 0 0 1-1.292-1.374 53.893 53.893 0 0 0-.305 7.178c.724.311 1.926.783 3.571 1.312z" data-color="4" class="icon1"></path><path d="M95.755 110.424c3.746 3.798 5.414 7.575 6.111 9.692a54.346 54.346 0 0 0 10.627-4.025c-6.828-5.074-13.312-5.751-16.738-5.667z" data-color="4" class="icon1"></path><path d="M151.297 76.58c-3.456 1.898-8.13 1.274-13.078.616-2.709-.362-5.485-.732-8.202-.732-1.091 0-2.172.06-3.236.203-7.277.983-12.217 8.515-12.265 14.933-.051 6.794 4.756 11.419 13.189 12.687 8.764 1.322 19.874-10.701 27.356-22.387 1.094-1.71 1.61-3.252 1.522-4.367a8.106 8.106 0 0 1-2.951-1.771c-.705.101-1.498.358-2.335.818zm-24.221 17.036c-.07.003-.139.004-.207.004-1.53 0-2.758-.604-3.389-1.676-.658-1.118-.556-2.56.283-3.954.665-1.106 1.763-2.146 3.09-2.928 1.326-.782 2.768-1.237 4.059-1.281 1.644-.053 2.937.552 3.595 1.671 1.221 2.073-.229 5.031-3.372 6.883-1.328.781-2.769 1.236-4.059 1.281z" data-color="4" class="icon1"></path><path d="M33.404 108.618c1.563 4.733 6.382 8.97 12.574 11.057a1.634 1.634 0 0 0 1.044-3.097c-5.159-1.738-9.287-5.264-10.516-8.985-.758-2.293-.408-4.511 1.04-6.592a1.635 1.635 0 0 0-2.682-1.866c-2.037 2.928-2.542 6.208-1.46 9.483z" data-color="2" class="icon2"></path><path d="M50.997 92.184c-.398 0-.768.094-1.093.313-.468.316-.544.589-.557.837-.044.889.756 2.197 1.775 3.432a9.405 9.405 0 0 1 2.877-3.403c-.963-.644-2.056-1.179-3.002-1.179z" data-color="5" class="icon2"></path><path d="M90.907 118.739c1.726 2.443 3.518 3.775 5.184 3.853.9.048 1.698-.285 2.289-.653.142-.158.316-.288.518-.384-.851-2.911-4.762-12.554-20.051-17.098-10.535-3.13-14.09-6.539-16.214-8.576-1.046-1.004-1.534-1.471-2.408-1.471-.509 0-1.149.158-2.107.46-2.594.818-4.291 2.712-4.656 5.197-.523 3.56 1.756 7.541 5.948 10.39 3.114 2.115 7.231 2.569 11.444 2.71 1.421-2.041 3.752-3.41 6.423-3.482a8.083 8.083 0 0 1 7.606 4.77c2.376.781 4.465 2.078 6.024 4.284z" data-color="6" class="icon3"></path><path d="M64.285 83.734c1.729.522 2.952.224 3.251-.013-.118-.364-.971-1.29-2.699-1.812-1.728-.521-2.951-.227-3.251.013.119.364.972 1.289 2.699 1.812z" data-color="5" class="icon2"></path><path d="M63.339 86.861a9.647 9.647 0 0 0 2.775.432c2.274 0 4.067-.953 4.57-2.618.376-1.243-.064-2.619-1.208-3.776-.908-.919-2.22-1.67-3.694-2.115-1.473-.446-2.981-.548-4.247-.287-1.593.33-2.722 1.231-3.098 2.474-.697 2.3 1.41 4.833 4.902 5.89zm1.498-4.952c1.728.522 2.581 1.448 2.699 1.812-.299.237-1.522.535-3.251.013-1.727-.523-2.58-1.448-2.699-1.812.3-.239 1.523-.534 3.251-.013z" data-color="2" class="icon2"></path><path d="M129.478 89.52c1.554-.915 2.165-2.015 2.194-2.398-.35-.16-1.607-.16-3.162.756s-2.166 2.016-2.195 2.398c.349.159 1.607.161 3.163-.756z" data-color="5" class="icon2"></path><path d="M134.507 85.452c-.658-1.119-1.951-1.724-3.595-1.671-1.291.045-2.733.5-4.059 1.281-1.327.782-2.425 1.822-3.09 2.928-.839 1.394-.941 2.836-.283 3.954.631 1.072 1.858 1.676 3.389 1.676.068 0 .137-.001.207-.004 1.29-.045 2.732-.5 4.059-1.281 3.143-1.852 4.593-4.811 3.372-6.883zm-5.997 2.426c1.554-.916 2.811-.916 3.162-.756-.03.383-.641 1.484-2.194 2.398-1.556.918-2.814.916-3.162.756.029-.382.64-1.483 2.194-2.398z" data-color="2" class="icon2"></path><path d="M75.62 68.775c.348.16 1.606.162 3.162-.756 1.554-.916 2.165-2.016 2.194-2.398-.347-.157-1.605-.161-3.162.756-1.554.915-2.165 2.016-2.194 2.398z" data-color="5" class="icon2"></path><path d="M94.885 72.337c-1.796-.153-2.933.392-3.178.688.191.332 1.219 1.058 3.017 1.209 1.798.154 2.933-.392 3.178-.688-.192-.331-1.219-1.058-3.017-1.209z" data-color="5" class="icon2"></path><path d="M90.945 69.685c-1.489.654-2.407 1.771-2.515 3.064-.11 1.294.608 2.549 1.967 3.442 1.079.709 2.519 1.17 4.053 1.3.303.026.601.037.892.037 3.205 0 5.652-1.508 5.837-3.705.109-1.294-.608-2.549-1.968-3.442-1.079-.709-2.519-1.17-4.053-1.3-1.534-.129-3.031.086-4.213.604zm3.779 4.549c-1.798-.151-2.826-.877-3.017-1.209.245-.296 1.382-.841 3.178-.688 1.798.151 2.825.877 3.017 1.209-.245.296-1.38.843-3.178.688z" data-color="2" class="icon2"></path><path d="M124.292 62.886c-1.691-.63-2.931-.413-3.245-.191.096.371.89 1.347 2.58 1.978 1.689.627 2.929.411 3.245.191-.094-.37-.888-1.347-2.58-1.978z" data-color="5" class="icon2"></path><path d="M58.298 118.867c.095.37.889 1.347 2.58 1.978 1.69.63 2.931.412 3.245.191-.096-.371-.89-1.347-2.58-1.978-1.691-.629-2.931-.411-3.245-.191z" data-color="5" class="icon2"></path><path d="M59.737 123.906c1.093.407 2.218.619 3.255.619.332 0 .655-.021.966-.066 1.611-.228 2.794-1.056 3.248-2.274.453-1.217.101-2.617-.968-3.843-.849-.974-2.11-1.807-3.554-2.344-1.443-.538-2.942-.737-4.221-.553-1.611.228-2.794 1.056-3.248 2.274-.839 2.253 1.105 4.914 4.522 6.187zm4.386-2.87c-.314.22-1.555.438-3.245-.191-1.691-.631-2.485-1.608-2.58-1.978.314-.22 1.554-.438 3.245.191 1.69.631 2.484 1.607 2.58 1.978z" data-color="2" class="icon2"></path><path d="M154.341 69.774c.035 1.291.571 2.603 1.507 3.49.937.888 2.146 1.407 3.455 1.379 1.29-.035 2.49-.543 3.377-1.48.887-.937 1.357-2.374 1.322-3.664-.071-2.619-2.224-4.912-4.829-4.912h-.133c-2.663 0-4.771 2.523-4.699 5.187z" data-color="3" class="icon3"></path><path d="M77.499 112.502h-.133c-2.663 0-4.772 2.523-4.699 5.187.035 1.291.571 2.603 1.507 3.49.937.888 2.146 1.4 3.455 1.379 1.29-.035 2.49-.543 3.377-1.48.887-.937 1.357-2.374 1.322-3.664-.071-2.619-2.224-4.912-4.829-4.912z" data-color="5" class="icon2"></path><path d="M157.025 105.968h-.071c-1.427 0-2.558 1.082-2.519 2.509.039 1.428 1.236 2.451 2.66 2.445 1.427-.039 2.558-1.119 2.519-2.546-.038-1.406-1.193-2.408-2.589-2.408z" data-color="5" class="icon2"></path><path d="M162.88 108.097a5.85 5.85 0 0 0-1.537-3.784c.701-3.299-.539-5.83-.604-5.959a1.625 1.625 0 0 0-2.176-.725 1.64 1.64 0 0 0-.748 2.18c.033.068.529 1.164.463 2.724a5.864 5.864 0 0 0-7.108 5.881c.02.748.191 1.455.465 2.106-2.55 1.293-6.062 2.504-10.918 3.437a1.633 1.633 0 1 0 .617 3.207c5.084-.977 9.23-2.335 12.421-4.06a5.82 5.82 0 0 0 3.27 1.008c.053 0 .106 0 .16-.002a5.863 5.863 0 0 0 5.695-6.013zm-3.266.278c.039 1.427-1.092 2.507-2.519 2.546-1.423.006-2.621-1.017-2.66-2.445-.039-1.427 1.092-2.509 2.519-2.509h.071c1.396.001 2.551 1.003 2.589 2.408z" data-color="2" class="icon2"></path></g></g>
</svg>
</g></svg></svg>